<svg xmlns="http://www.w3.org/2000/svg" viewBox="0 0 800 450"><defs><linearGradient id="chessLight" x1="0%" y1="0%" x2="100%" y2="100%"><stop offset="0%" stop-color="#f0d9b5"/><stop offset="100%" stop-color="#e8c99b"/></linearGradient><linearGradient id="chessDark" x1="0%" y1="0%" x2="100%" y2="100%"><stop offset="0%" stop-color="#b58863"/><stop offset="100%" stop-color="#9b704f"/></linearGradient><radialGradient id="boardShadow"><stop offset="0%" stop-color="#000" stop-opacity="0.15"/><stop offset="100%" stop-color="#000" stop-opacity="0"/></radialGradient></defs><rect width="800" height="450" fill="#1a1a1a"/><g transform="translate(240,40)"><rect x="-10" y="-10" width="340" height="340" fill="url(#boardShadow)" rx="8"/><!-- Board --><rect width="320" height="320"/><rect x="0" y="0" width="25" height="25" fill="#f0d9b5"/>
<text x="12.5" y="18.0" text-anchor="middle" font-size="13.750000000000002" fill="#fff">♖</text>
<rect x="25" y="0" width="25" height="25" fill="#b58863"/>
<rect x="50" y="0" width="25" height="25" fill="#f0d9b5"/>
<rect x="75" y="0" width="25" height="25" fill="#b58863"/>
<text x="87.5" y="18.0" text-anchor="middle" font-size="15.0" fill="#fff">♕</text>
<rect x="100" y="0" width="25" height="25" fill="#f0d9b5"/>
<text x="112.5" y="18.0" text-anchor="middle" font-size="16.25" fill="#fff">♔</text>
<rect x="125" y="0" width="25" height="25" fill="#b58863"/>
<rect x="150" y="0" width="25" height="25" fill="#f0d9b5"/>
<rect x="175" y="0" width="25" height="25" fill="#b58863"/>
<text x="187.5" y="18.0" text-anchor="middle" font-size="13.750000000000002" fill="#fff">♖</text>
<rect x="0" y="25" width="25" height="25" fill="#b58863"/>
<text x="12.5" y="43.0" text-anchor="middle" font-size="12.5" fill="#fff">♙</text>
<rect x="25" y="25" width="25" height="25" fill="#f0d9b5"/>
<rect x="50" y="25" width="25" height="25" fill="#b58863"/>
<rect x="75" y="25" width="25" height="25" fill="#f0d9b5"/>
<rect x="100" y="25" width="25" height="25" fill="#b58863"/>
<rect x="125" y="25" width="25" height="25" fill="#f0d9b5"/>
<rect x="150" y="25" width="25" height="25" fill="#b58863"/>
<rect x="175" y="25" width="25" height="25" fill="#f0d9b5"/>
<rect x="0" y="50" width="25" height="25" fill="#f0d9b5"/>
<rect x="25" y="50" width="25" height="25" fill="#b58863"/>
<rect x="50" y="50" width="25" height="25" fill="#f0d9b5"/>
<rect x="75" y="50" width="25" height="25" fill="#b58863"/>
<rect x="100" y="50" width="25" height="25" fill="#f0d9b5"/>
<rect x="125" y="50" width="25" height="25" fill="#b58863"/>
<rect x="150" y="50" width="25" height="25" fill="#f0d9b5"/>
<rect x="175" y="50" width="25" height="25" fill="#b58863"/>
<rect x="0" y="75" width="25" height="25" fill="#b58863"/>
<rect x="25" y="75" width="25" height="25" fill="#f0d9b5"/>
<rect x="50" y="75" width="25" height="25" fill="#b58863"/>
<rect x="75" y="75" width="25" height="25" fill="#f0d9b5"/>
<rect x="100" y="75" width="25" height="25" fill="#b58863"/>
<rect x="125" y="75" width="25" height="25" fill="#f0d9b5"/>
<rect x="150" y="75" width="25" height="25" fill="#b58863"/>
<rect x="175" y="75" width="25" height="25" fill="#f0d9b5"/>
<rect x="0" y="100" width="25" height="25" fill="#f0d9b5"/>
<rect x="25" y="100" width="25" height="25" fill="#b58863"/>
<rect x="50" y="100" width="25" height="25" fill="#f0d9b5"/>
<rect x="75" y="100" width="25" height="25" fill="#b58863"/>
<rect x="100" y="100" width="25" height="25" fill="#f0d9b5"/>
<rect x="125" y="100" width="25" height="25" fill="#b58863"/>
<rect x="150" y="100" width="25" height="25" fill="#f0d9b5"/>
<rect x="175" y="100" width="25" height="25" fill="#b58863"/>
<rect x="0" y="125" width="25" height="25" fill="#b58863"/>
<rect x="25" y="125" width="25" height="25" fill="#f0d9b5"/>
<rect x="50" y="125" width="25" height="25" fill="#b58863"/>
<rect x="75" y="125" width="25" height="25" fill="#f0d9b5"/>
<rect x="100" y="125" width="25" height="25" fill="#b58863"/>
<rect x="125" y="125" width="25" height="25" fill="#f0d9b5"/>
<rect x="150" y="125" width="25" height="25" fill="#b58863"/>
<rect x="175" y="125" width="25" height="25" fill="#f0d9b5"/>
<rect x="0" y="150" width="25" height="25" fill="#f0d9b5"/>
<text x="12.5" y="168.0" text-anchor="middle" font-size="12.5" fill="#000">♟</text>
<rect x="25" y="150" width="25" height="25" fill="#b58863"/>
<rect x="50" y="150" width="25" height="25" fill="#f0d9b5"/>
<rect x="75" y="150" width="25" height="25" fill="#b58863"/>
<rect x="100" y="150" width="25" height="25" fill="#f0d9b5"/>
<rect x="125" y="150" width="25" height="25" fill="#b58863"/>
<rect x="150" y="150" width="25" height="25" fill="#f0d9b5"/>
<rect x="175" y="150" width="25" height="25" fill="#b58863"/>
<rect x="0" y="175" width="25" height="25" fill="#b58863"/>
<rect x="25" y="175" width="25" height="25" fill="#f0d9b5"/>
<rect x="50" y="175" width="25" height="25" fill="#b58863"/>
<rect x="75" y="175" width="25" height="25" fill="#f0d9b5"/>
<text x="87.5" y="193.0" text-anchor="middle" font-size="15.0" fill="#000">♛</text>
<rect x="100" y="175" width="25" height="25" fill="#b58863"/>
<text x="112.5" y="193.0" text-anchor="middle" font-size="16.25" fill="#000">♚</text>
<rect x="125" y="175" width="25" height="25" fill="#f0d9b5"/>
<rect x="150" y="175" width="25" height="25" fill="#b58863"/>
<rect x="175" y="175" width="25" height="25" fill="#f0d9b5"/>
<text x="187.5" y="193.0" text-anchor="middle" font-size="13.750000000000002" fill="#000">♜</text></g><text x="400" y="410" text-anchor="middle" font-family="Georgia,serif" font-size="22" fill="#c9a86c" opacity="0.4" letter-spacing="6">CHESS</text></svg>