<svg xmlns="http://www.w3.org/2000/svg" viewBox="0 0 800 450">
  <defs>
    <linearGradient id="bg" x1="0" y1="0" x2="1" y2="1"><stop offset="0%" stop-color="#c0c0c0"/><stop offset="100%" stop-color="#a8a8a8"/></linearGradient>
    <linearGradient id="cellUp" x1="0" y1="0" x2="1" y2="1"><stop offset="0%" stop-color="#e8e8e8"/><stop offset="100%" stop-color="#d0d0d0"/></linearGradient>
    <linearGradient id="cellDown" x1="0" y1="0" x2="1" y2="1"><stop offset="0%" stop-color="#d0d0d0"/><stop offset="100%" stop-color="#b8b8b8"/></linearGradient>
    <filter id="mineShadow"><feDropShadow dx="1" dy="2" stdDeviation="2" flood-opacity="0.3"/></filter>
  </defs>
  <rect width="800" height="450" fill="url(#bg)"/>
  <!-- Minefield grid -->
  <g transform="translate(175,50)">
    <!-- Generate 16x10 grid of cells -->
    <script></script>
    <!-- Row 0 -->
    <rect x="0" y="0" width="28" height="28" rx="3" fill="url(#cellUp)" stroke="#999" stroke-width="0.5"/>
    <rect x="29" y="0" width="28" height="28" rx="3" fill="url(#cellDown)" stroke="#999" stroke-width="0.5"/><text x="43" y="20" text-anchor="middle" font-family="Arial,sans-serif" font-size="15" font-weight="bold" fill="#0000FF">1</text>
    <rect x="58" y="0" width="28" height="28" rx="3" fill="url(#cellUp)" stroke="#999" stroke-width="0.5"/>
    <rect x="87" y="0" width="28" height="28" rx="3" fill="url(#cellUp)" stroke="#999" stroke-width="0.5"/>
    <rect x="116" y="0" width="28" height="28" rx="3" fill="url(#cellDown)" stroke="#999" stroke-width="0.5"/><text x="130" y="20" text-anchor="middle" font-family="Arial,sans-serif" font-size="15" font-weight="bold" fill="#0000FF">1</text>
    <rect x="145" y="0" width="28" height="28" rx="3" fill="url(#cellUp)" stroke="#999" stroke-width="0.5"/>
    <rect x="174" y="0" width="28" height="28" rx="3" fill="url(#cellUp)" stroke="#999" stroke-width="0.5"/>
    <rect x="203" y="0" width="28" height="28" rx="3" fill="url(#cellUp)" stroke="#999" stroke-width="0.5"/>
    <rect x="232" y="0" width="28" height="28" rx="3" fill="url(#cellUp)" stroke="#999" stroke-width="0.5"/>
    <rect x="261" y="0" width="28" height="28" rx="3" fill="url(#cellUp)" stroke="#999" stroke-width="0.5"/>
    <rect x="290" y="0" width="28" height="28" rx="3" fill="url(#cellUp)" stroke="#999" stroke-width="0.5"/>
    <rect x="319" y="0" width="28" height="28" rx="3" fill="url(#cellUp)" stroke="#999" stroke-width="0.5"/>
    <rect x="348" y="0" width="28" height="28" rx="3" fill="url(#cellUp)" stroke="#999" stroke-width="0.5"/>
    <rect x="377" y="0" width="28" height="28" rx="3" fill="url(#cellUp)" stroke="#999" stroke-width="0.5"/>
    <!-- Row 1 -->
    <rect x="0" y="29" width="28" height="28" rx="3" fill="url(#cellDown)" stroke="#999" stroke-width="0.5"/><text x="14" y="49" text-anchor="middle" font-family="Arial,sans-serif" font-size="15" font-weight="bold" fill="#0000FF">1</text>
    <rect x="29" y="29" width="28" height="28" rx="3" fill="url(#cellDown)" stroke="#999" stroke-width="0.5"/><text x="43" y="49" text-anchor="middle" font-family="Arial,sans-serif" font-size="15" font-weight="bold" fill="#0000FF">1</text>
    <rect x="58" y="29" width="28" height="28" rx="3" fill="url(#cellDown)" stroke="#999" stroke-width="0.5"/><text x="72" y="49" text-anchor="middle" font-family="Arial,sans-serif" font-size="15" font-weight="bold" fill="#0000FF">1</text>
    <rect x="87" y="29" width="28" height="28" rx="3" fill="url(#cellUp)" stroke="#999" stroke-width="0.5"/>
    <rect x="116" y="29" width="28" height="28" rx="3" fill="url(#cellUp)" stroke="#999" stroke-width="0.5"/>
    <rect x="145" y="29" width="28" height="28" rx="3" fill="url(#cellDown)" stroke="#999" stroke-width="0.5"/><text x="159" y="49" text-anchor="middle" font-family="Arial,sans-serif" font-size="15" font-weight="bold" fill="#0000FF">2</text>
    <rect x="174" y="29" width="28" height="28" rx="3" fill="url(#cellUp)" stroke="#999" stroke-width="0.5"/>
    <rect x="203" y="29" width="28" height="28" rx="3" fill="url(#cellUp)" stroke="#999" stroke-width="0.5"/>
    <rect x="232" y="29" width="28" height="28" rx="3" fill="url(#cellUp)" stroke="#999" stroke-width="0.5"/>
    <rect x="261" y="29" width="28" height="28" rx="3" fill="url(#cellUp)" stroke="#999" stroke-width="0.5"/>
    <rect x="290" y="29" width="28" height="28" rx="3" fill="url(#cellUp)" stroke="#999" stroke-width="0.5"/>
    <rect x="319" y="29" width="28" height="28" rx="3" fill="url(#cellUp)" stroke="#999" stroke-width="0.5"/>
    <rect x="348" y="29" width="28" height="28" rx="3" fill="url(#cellUp)" stroke="#999" stroke-width="0.5"/>
    <rect x="377" y="29" width="28" height="28" rx="3" fill="url(#cellUp)" stroke="#999" stroke-width="0.5"/>
    <!-- Rows 2-7: mix of up/down cells -->
    <rect x="0" y="58" width="28" height="28" rx="3" fill="url(#cellDown)" stroke="#999" stroke-width="0.5"/><text x="14" y="78" text-anchor="middle" font-family="Arial,sans-serif" font-size="15" font-weight="bold" fill="#0000FF">1</text>
    <rect x="29" y="58" width="28" height="28" rx="3" fill="url(#cellDown)" stroke="#999" stroke-width="0.5"/><text x="43" y="78" text-anchor="middle" font-family="Arial,sans-serif" font-size="15" font-weight="bold" fill="#008000">2</text>
    <rect x="58" y="58" width="28" height="28" rx="3" fill="url(#cellDown)" stroke="#999" stroke-width="0.5"/>
    <circle cx="72" cy="74" r="8" fill="#333"/>
    <line x1="68" y1="70" x2="76" y2="78" stroke="#000" stroke-width="2"/>
    <line x1="76" y1="70" x2="68" y2="78" stroke="#000" stroke-width="2"/>
    <circle cx="72" cy="72" r="2" fill="#fff" opacity="0.6"/>
    <rect x="87" y="58" width="28" height="28" rx="3" fill="url(#cellDown)" stroke="#999" stroke-width="0.5"/><text x="101" y="78" text-anchor="middle" font-family="Arial,sans-serif" font-size="15" font-weight="bold" fill="#008000">2</text>
    <rect x="116" y="58" width="28" height="28" rx="3" fill="url(#cellDown)" stroke="#999" stroke-width="0.5"/><text x="130" y="78" text-anchor="middle" font-family="Arial,sans-serif" font-size="15" font-weight="bold" fill="#0000FF">1</text>
    <rect x="145" y="58" width="28" height="28" rx="3" fill="url(#cellUp)" stroke="#999" stroke-width="0.5"/>
    <rect x="174" y="58" width="28" height="28" rx="3" fill="url(#cellUp)" stroke="#999" stroke-width="0.5"/>
    <rect x="203" y="58" width="28" height="28" rx="3" fill="url(#cellUp)" stroke="#999" stroke-width="0.5"/>
    <rect x="232" y="58" width="28" height="28" rx="3" fill="url(#cellUp)" stroke="#999" stroke-width="0.5"/>
    <rect x="261" y="58" width="28" height="28" rx="3" fill="url(#cellUp)" stroke="#999" stroke-width="0.5"/>
    <rect x="290" y="58" width="28" height="28" rx="3" fill="url(#cellUp)" stroke="#999" stroke-width="0.5"/>
    <rect x="319" y="58" width="28" height="28" rx="3" fill="url(#cellUp)" stroke="#999" stroke-width="0.5"/>
    <rect x="348" y="58" width="28" height="28" rx="3" fill="url(#cellUp)" stroke="#999" stroke-width="0.5"/>
    <rect x="377" y="58" width="28" height="28" rx="3" fill="url(#cellUp)" stroke="#999" stroke-width="0.5"/>
    <rect x="0" y="87" width="28" height="28" rx="3" fill="url(#cellDown)" stroke="#999" stroke-width="0.5"/><text x="14" y="107" text-anchor="middle" font-family="Arial,sans-serif" font-size="15" font-weight="bold" fill="#000">0</text>
    <rect x="29" y="87" width="28" height="28" rx="3" fill="url(#cellDown)" stroke="#999" stroke-width="0.5"/>
    <circle cx="43" cy="103" r="8" fill="#333"/>
    <line x1="39" y1="99" x2="47" y2="107" stroke="#000" stroke-width="2"/>
    <line x1="47" y1="99" x2="39" y2="107" stroke="#000" stroke-width="2"/>
    <circle cx="43" cy="101" r="2" fill="#fff" opacity="0.6"/>
    <rect x="58" y="87" width="28" height="28" rx="3" fill="url(#cellUp)" stroke="#999" stroke-width="0.5"/>
    <rect x="87" y="87" width="28" height="28" rx="3" fill="url(#cellDown)" stroke="#999" stroke-width="0.5"/><text x="101" y="107" text-anchor="middle" font-family="Arial,sans-serif" font-size="15" font-weight="bold" fill="#FF0000">3</text>
    <rect x="116" y="87" width="28" height="28" rx="3" fill="url(#cellDown)" stroke="#999" stroke-width="0.5"/>
    <circle cx="130" cy="103" r="8" fill="#333"/>
    <line x1="126" y1="99" x2="134" y2="107" stroke="#000" stroke-width="2"/>
    <line x1="134" y1="99" x2="126" y2="107" stroke="#000" stroke-width="2"/>
    <circle cx="130" cy="101" r="2" fill="#fff" opacity="0.6"/>
    <rect x="145" y="87" width="28" height="28" rx="3" fill="url(#cellUp)" stroke="#999" stroke-width="0.5"/>
    <rect x="174" y="87" width="28" height="28" rx="3" fill="url(#cellDown)" stroke="#999" stroke-width="0.5"/><text x="188" y="107" text-anchor="middle" font-family="Arial,sans-serif" font-size="15" font-weight="bold" fill="#0000FF">1</text>
    <rect x="203" y="87" width="28" height="28" rx="3" fill="url(#cellUp)" stroke="#999" stroke-width="0.5"/>
    <rect x="232" y="87" width="28" height="28" rx="3" fill="url(#cellUp)" stroke="#999" stroke-width="0.5"/>
    <rect x="261" y="87" width="28" height="28" rx="3" fill="url(#cellUp)" stroke="#999" stroke-width="0.5"/>
    <rect x="290" y="87" width="28" height="28" rx="3" fill="url(#cellUp)" stroke="#999" stroke-width="0.5"/>
    <rect x="319" y="87" width="28" height="28" rx="3" fill="url(#cellUp)" stroke="#999" stroke-width="0.5"/>
    <rect x="348" y="87" width="28" height="28" rx="3" fill="url(#cellUp)" stroke="#999" stroke-width="0.5"/>
    <rect x="377" y="87" width="28" height="28" rx="3" fill="url(#cellUp)" stroke="#999" stroke-width="0.5"/>
    <rect x="0" y="116" width="28" height="28" rx="3" fill="url(#cellDown)" stroke="#999" stroke-width="0.5"/><text x="14" y="136" text-anchor="middle" font-family="Arial,sans-serif" font-size="15" font-weight="bold" fill="#0000FF">1</text>
    <rect x="29" y="116" width="28" height="28" rx="3" fill="url(#cellDown)" stroke="#999" stroke-width="0.5"/><text x="43" y="136" text-anchor="middle" font-family="Arial,sans-serif" font-size="15" font-weight="bold" fill="#008000">2</text>
    <rect x="58" y="116" width="28" height="28" rx="3" fill="url(#cellDown)" stroke="#999" stroke-width="0.5"/><text x="72" y="136" text-anchor="middle" font-family="Arial,sans-serif" font-size="15" font-weight="bold" fill="#008000">2</text>
    <rect x="87" y="116" width="28" height="28" rx="3" fill="url(#cellDown)" stroke="#999" stroke-width="0.5"/>
    <circle cx="101" cy="132" r="8" fill="#333"/>
    <line x1="97" y1="128" x2="105" y2="136" stroke="#000" stroke-width="2"/>
    <line x1="105" y1="128" x2="97" y2="136" stroke="#000" stroke-width="2"/>
    <circle cx="101" cy="130" r="2" fill="#fff" opacity="0.6"/>
    <rect x="116" y="116" width="28" height="28" rx="3" fill="url(#cellDown)" stroke="#999" stroke-width="0.5"/><text x="130" y="136" text-anchor="middle" font-family="Arial,sans-serif" font-size="15" font-weight="bold" fill="#008000">2</text>
    <rect x="145" y="116" width="28" height="28" rx="3" fill="url(#cellDown)" stroke="#999" stroke-width="0.5"/><text x="159" y="136" text-anchor="middle" font-family="Arial,sans-serif" font-size="15" font-weight="bold" fill="#0000FF">1</text>
    <rect x="174" y="116" width="28" height="28" rx="3" fill="url(#cellUp)" stroke="#999" stroke-width="0.5"/>
    <rect x="203" y="116" width="28" height="28" rx="3" fill="url(#cellUp)" stroke="#999" stroke-width="0.5"/>
    <rect x="232" y="116" width="28" height="28" rx="3" fill="url(#cellUp)" stroke="#999" stroke-width="0.5"/>
    <rect x="261" y="116" width="28" height="28" rx="3" fill="url(#cellUp)" stroke="#999" stroke-width="0.5"/>
    <rect x="290" y="116" width="28" height="28" rx="3" fill="url(#cellUp)" stroke="#999" stroke-width="0.5"/>
    <rect x="319" y="116" width="28" height="28" rx="3" fill="url(#cellUp)" stroke="#999" stroke-width="0.5"/>
    <rect x="348" y="116" width="28" height="28" rx="3" fill="url(#cellUp)" stroke="#999" stroke-width="0.5"/>
    <rect x="377" y="116" width="28" height="28" rx="3" fill="url(#cellUp)" stroke="#999" stroke-width="0.5"/>
    <rect x="0" y="145" width="28" height="28" rx="3" fill="url(#cellUp)" stroke="#999" stroke-width="0.5"/>
    <rect x="29" y="145" width="28" height="28" rx="3" fill="url(#cellUp)" stroke="#999" stroke-width="0.5"/>
    <rect x="58" y="145" width="28" height="28" rx="3" fill="url(#cellDown)" stroke="#999" stroke-width="0.5"/><text x="72" y="165" text-anchor="middle" font-family="Arial,sans-serif" font-size="15" font-weight="bold" fill="#0000FF">1</text>
    <rect x="87" y="145" width="28" height="28" rx="3" fill="url(#cellDown)" stroke="#999" stroke-width="0.5"/><text x="101" y="165" text-anchor="middle" font-family="Arial,sans-serif" font-size="15" font-weight="bold" fill="#0000FF">1</text>
    <rect x="116" y="145" width="28" height="28" rx="3" fill="url(#cellDown)" stroke="#999" stroke-width="0.5"/><text x="130" y="165" text-anchor="middle" font-family="Arial,sans-serif" font-size="15" font-weight="bold" fill="#0000FF">1</text>
    <rect x="145" y="145" width="28" height="28" rx="3" fill="url(#cellUp)" stroke="#999" stroke-width="0.5"/>
    <rect x="174" y="145" width="28" height="28" rx="3" fill="url(#cellUp)" stroke="#999" stroke-width="0.5"/>
    <rect x="203" y="145" width="28" height="28" rx="3" fill="url(#cellUp)" stroke="#999" stroke-width="0.5"/>
    <rect x="232" y="145" width="28" height="28" rx="3" fill="url(#cellUp)" stroke="#999" stroke-width="0.5"/>
    <rect x="261" y="145" width="28" height="28" rx="3" fill="url(#cellUp)" stroke="#999" stroke-width="0.5"/>
    <rect x="290" y="145" width="28" height="28" rx="3" fill="url(#cellUp)" stroke="#999" stroke-width="0.5"/>
    <rect x="319" y="145" width="28" height="28" rx="3" fill="url(#cellUp)" stroke="#999" stroke-width="0.5"/>
    <rect x="348" y="145" width="28" height="28" rx="3" fill="url(#cellUp)" stroke="#999" stroke-width="0.5"/>
    <rect x="377" y="145" width="28" height="28" rx="3" fill="url(#cellUp)" stroke="#999" stroke-width="0.5"/>
    <rect x="0" y="174" width="28" height="28" rx="3" fill="url(#cellUp)" stroke="#999" stroke-width="0.5"/>
    <rect x="29" y="174" width="28" height="28" rx="3" fill="url(#cellUp)" stroke="#999" stroke-width="0.5"/>
    <rect x="58" y="174" width="28" height="28" rx="3" fill="url(#cellUp)" stroke="#999" stroke-width="0.5"/>
    <rect x="87" y="174" width="28" height="28" rx="3" fill="url(#cellUp)" stroke="#999" stroke-width="0.5"/>
    <rect x="116" y="174" width="28" height="28" rx="3" fill="url(#cellUp)" stroke="#999" stroke-width="0.5"/>
    <rect x="145" y="174" width="28" height="28" rx="3" fill="url(#cellUp)" stroke="#999" stroke-width="0.5"/>
    <rect x="174" y="174" width="28" height="28" rx="3" fill="url(#cellUp)" stroke="#999" stroke-width="0.5"/>
    <rect x="203" y="174" width="28" height="28" rx="3" fill="url(#cellUp)" stroke="#999" stroke-width="0.5"/>
    <rect x="232" y="174" width="28" height="28" rx="3" fill="url(#cellUp)" stroke="#999" stroke-width="0.5"/>
    <rect x="261" y="174" width="28" height="28" rx="3" fill="url(#cellUp)" stroke="#999" stroke-width="0.5"/>
    <rect x="290" y="174" width="28" height="28" rx="3" fill="url(#cellUp)" stroke="#999" stroke-width="0.5"/>
    <rect x="319" y="174" width="28" height="28" rx="3" fill="url(#cellUp)" stroke="#999" stroke-width="0.5"/>
    <rect x="348" y="174" width="28" height="28" rx="3" fill="url(#cellUp)" stroke="#999" stroke-width="0.5"/>
    <rect x="377" y="174" width="28" height="28" rx="3" fill="url(#cellUp)" stroke="#999" stroke-width="0.5"/>
    <rect x="0" y="203" width="28" height="28" rx="3" fill="url(#cellUp)" stroke="#999" stroke-width="0.5"/>
    <rect x="29" y="203" width="28" height="28" rx="3" fill="url(#cellUp)" stroke="#999" stroke-width="0.5"/>
    <rect x="58" y="203" width="28" height="28" rx="3" fill="url(#cellUp)" stroke="#999" stroke-width="0.5"/>
    <rect x="87" y="203" width="28" height="28" rx="3" fill="url(#cellUp)" stroke="#999" stroke-width="0.5"/>
    <rect x="116" y="203" width="28" height="28" rx="3" fill="url(#cellUp)" stroke="#999" stroke-width="0.5"/>
    <rect x="145" y="203" width="28" height="28" rx="3" fill="url(#cellUp)" stroke="#999" stroke-width="0.5"/>
    <rect x="174" y="203" width="28" height="28" rx="3" fill="url(#cellUp)" stroke="#999" stroke-width="0.5"/>
    <rect x="203" y="203" width="28" height="28" rx="3" fill="url(#cellUp)" stroke="#999" stroke-width="0.5"/>
    <rect x="232" y="203" width="28" height="28" rx="3" fill="url(#cellUp)" stroke="#999" stroke-width="0.5"/>
    <rect x="261" y="203" width="28" height="28" rx="3" fill="url(#cellDown)" stroke="#999" stroke-width="0.5"/>
    <circle cx="275" cy="219" r="8" fill="#333"/>
    <line x1="271" y1="215" x2="279" y2="223" stroke="#000" stroke-width="2"/>
    <line x1="279" y1="215" x2="271" y2="223" stroke="#000" stroke-width="2"/>
    <circle cx="275" cy="217" r="2" fill="#fff" opacity="0.6"/>
    <rect x="290" y="203" width="28" height="28" rx="3" fill="url(#cellDown)" stroke="#999" stroke-width="0.5"/><text x="304" y="223" text-anchor="middle" font-family="Arial,sans-serif" font-size="15" font-weight="bold" fill="#0000FF">1</text>
    <rect x="319" y="203" width="28" height="28" rx="3" fill="url(#cellDown)" stroke="#999" stroke-width="0.5"/><text x="333" y="223" text-anchor="middle" font-family="Arial,sans-serif" font-size="15" font-weight="bold" fill="#0000FF">1</text>
    <rect x="348" y="203" width="28" height="28" rx="3" fill="url(#cellDown)" stroke="#999" stroke-width="0.5"/><text x="362" y="223" text-anchor="middle" font-family="Arial,sans-serif" font-size="15" font-weight="bold" fill="#0000FF">1</text>
    <rect x="377" y="203" width="28" height="28" rx="3" fill="url(#cellUp)" stroke="#999" stroke-width="0.5"/>
    <rect x="0" y="232" width="28" height="28" rx="3" fill="url(#cellUp)" stroke="#999" stroke-width="0.5"/>
    <rect x="29" y="232" width="28" height="28" rx="3" fill="url(#cellUp)" stroke="#999" stroke-width="0.5"/>
    <rect x="58" y="232" width="28" height="28" rx="3" fill="url(#cellUp)" stroke="#999" stroke-width="0.5"/>
    <rect x="87" y="232" width="28" height="28" rx="3" fill="url(#cellUp)" stroke="#999" stroke-width="0.5"/>
    <rect x="116" y="232" width="28" height="28" rx="3" fill="url(#cellUp)" stroke="#999" stroke-width="0.5"/>
    <rect x="145" y="232" width="28" height="28" rx="3" fill="url(#cellUp)" stroke="#999" stroke-width="0.5"/>
    <rect x="174" y="232" width="28" height="28" rx="3" fill="url(#cellUp)" stroke="#999" stroke-width="0.5"/>
    <rect x="203" y="232" width="28" height="28" rx="3" fill="url(#cellUp)" stroke="#999" stroke-width="0.5"/>
    <rect x="232" y="232" width="28" height="28" rx="3" fill="url(#cellUp)" stroke="#999" stroke-width="0.5"/>
    <rect x="261" y="232" width="28" height="28" rx="3" fill="url(#cellDown)" stroke="#999" stroke-width="0.5"/><text x="275" y="252" text-anchor="middle" font-family="Arial,sans-serif" font-size="15" font-weight="bold" fill="#0000FF">1</text>
    <rect x="290" y="232" width="28" height="28" rx="3" fill="url(#cellDown)" stroke="#999" stroke-width="0.5"/><text x="304" y="252" text-anchor="middle" font-family="Arial,sans-serif" font-size="15" font-weight="bold" fill="#008000">2</text>
    <rect x="319" y="232" width="28" height="28" rx="3" fill="url(#cellDown)" stroke="#999" stroke-width="0.5"/>
    <circle cx="333" cy="248" r="8" fill="#333"/>
    <line x1="329" y1="244" x2="337" y2="252" stroke="#000" stroke-width="2"/>
    <line x1="337" y1="244" x2="329" y2="252" stroke="#000" stroke-width="2"/>
    <circle cx="333" cy="246" r="2" fill="#fff" opacity="0.6"/>
    <rect x="348" y="232" width="28" height="28" rx="3" fill="url(#cellDown)" stroke="#999" stroke-width="0.5"/><text x="362" y="252" text-anchor="middle" font-family="Arial,sans-serif" font-size="15" font-weight="bold" fill="#008000">2</text>
    <rect x="377" y="232" width="28" height="28" rx="3" fill="url(#cellDown)" stroke="#999" stroke-width="0.5"/><text x="391" y="252" text-anchor="middle" font-family="Arial,sans-serif" font-size="15" font-weight="bold" fill="#0000FF">1</text>
    <rect x="0" y="261" width="28" height="28" rx="3" fill="url(#cellUp)" stroke="#999" stroke-width="0.5"/>
    <rect x="29" y="261" width="28" height="28" rx="3" fill="url(#cellUp)" stroke="#999" stroke-width="0.5"/>
    <rect x="58" y="261" width="28" height="28" rx="3" fill="url(#cellUp)" stroke="#999" stroke-width="0.5"/>
    <rect x="87" y="261" width="28" height="28" rx="3" fill="url(#cellUp)" stroke="#999" stroke-width="0.5"/>
    <rect x="116" y="261" width="28" height="28" rx="3" fill="url(#cellUp)" stroke="#999" stroke-width="0.5"/>
    <rect x="145" y="261" width="28" height="28" rx="3" fill="url(#cellUp)" stroke="#999" stroke-width="0.5"/>
    <rect x="174" y="261" width="28" height="28" rx="3" fill="url(#cellUp)" stroke="#999" stroke-width="0.5"/>
    <rect x="203" y="261" width="28" height="28" rx="3" fill="url(#cellUp)" stroke="#999" stroke-width="0.5"/>
    <rect x="232" y="261" width="28" height="28" rx="3" fill="url(#cellUp)" stroke="#999" stroke-width="0.5"/>
    <rect x="261" y="261" width="28" height="28" rx="3" fill="url(#cellDown)" stroke="#999" stroke-width="0.5"/><text x="275" y="281" text-anchor="middle" font-family="Arial,sans-serif" font-size="15" font-weight="bold" fill="#000">0</text>
    <rect x="290" y="261" width="28" height="28" rx="3" fill="url(#cellDown)" stroke="#999" stroke-width="0.5"/><text x="304" y="281" text-anchor="middle" font-family="Arial,sans-serif" font-size="15" font-weight="bold" fill="#0000FF">1</text>
    <rect x="319" y="261" width="28" height="28" rx="3" fill="url(#cellUp)" stroke="#999" stroke-width="0.5"/>
    <rect x="348" y="261" width="28" height="28" rx="3" fill="url(#cellDown)" stroke="#999" stroke-width="0.5"/><text x="362" y="281" text-anchor="middle" font-family="Arial,sans-serif" font-size="15" font-weight="bold" fill="#0000FF">1</text>
    <rect x="377" y="261" width="28" height="28" rx="3" fill="url(#cellDown)" stroke="#999" stroke-width="0.5"/><text x="391" y="281" text-anchor="middle" font-family="Arial,sans-serif" font-size="15" font-weight="bold" fill="#0000FF">1</text>

    <!-- Face button -->
    <rect x="175" y="330" width="405" height="36" rx="6" fill="url(#cellUp)" stroke="#999" stroke-width="1"/>
    <circle cx="202" cy="348" r="10" fill="#ffd700"/>
    <circle cx="199" cy="345" r="1.5" fill="#000"/><circle cx="205" cy="345" r="1.5" fill="#000"/>
    <path d="M196 350 Q202 356 208 350" fill="none" stroke="#000" stroke-width="1.5"/>
    <!-- Counter -->
    <rect x="175" y="385" width="90" height="28" rx="4" fill="#000"/>
    <text x="220" y="404" text-anchor="middle" font-family="monospace" font-size="18" font-weight="bold" fill="#ff0000">037</text>
    <!-- Timer -->
    <rect x="490" y="385" width="90" height="28" rx="4" fill="#000"/>
    <text x="535" y="404" text-anchor="middle" font-family="monospace" font-size="18" font-weight="bold" fill="#ff0000">124</text>
  </g>
  <text x="400" y="440" text-anchor="middle" font-family="sans-serif" font-size="13" fill="#555" opacity="0.4" letter-spacing="4">MINESWEEPER</text>
</svg>