<svg xmlns="http://www.w3.org/2000/svg" width="400" height="300" viewBox="0 0 400 300">
  <defs>
    <linearGradient id="bg" x1="0%" y1="0%" x2="100%" y2="100%">
      <stop offset="0%" style="stop-color:#f7df1e;stop-opacity:1" />
      <stop offset="100%" style="stop-color:#e5c100;stop-opacity:1" />
    </linearGradient>
  </defs>
  <rect width="400" height="300" fill="url(#bg)" rx="16"/>
  <!-- Grid -->
  <g transform="translate(120,50)">
    <rect x="0" y="0" width="60" height="60" rx="6" fill="#eee4da"/>
    <text x="30" y="42" font-family="Arial,sans-serif" font-size="28" font-weight="bold" text-anchor="middle" fill="#776e65">2</text>
    <rect x="70" y="0" width="60" height="60" rx="6" fill="#ede0c8"/>
    <text x="100" y="42" font-family="Arial,sans-serif" font-size="28" font-weight="bold" text-anchor="middle" fill="#776e65">4</text>
    <rect x="140" y="0" width="60" height="60" rx="6" fill="#f2b179"/>
    <text x="170" y="42" font-family="Arial,sans-serif" font-size="28" font-weight="bold" text-anchor="middle" fill="#f9f6f2">8</text>

    <rect x="0" y="70" width="60" height="60" rx="6" fill="#ede0c8"/>
    <text x="30" y="112" font-family="Arial,sans-serif" font-size="28" font-weight="bold" text-anchor="middle" fill="#776e65">4</text>
    <rect x="70" y="70" width="60" height="60" rx="6" fill="#f59563"/>
    <text x="100" y="112" font-family="Arial,sans-serif" font-size="28" font-weight="bold" text-anchor="middle" fill="#f9f6f2">16</text>
    <rect x="140" y="70" width="60" height="60" rx="6" fill="#eee4da"/>

    <rect x="0" y="140" width="60" height="60" rx="6" fill="#f2b179"/>
    <text x="30" y="182" font-family="Arial,sans-serif" font-size="28" font-weight="bold" text-anchor="middle" fill="#f9f6f2">8</text>
    <rect x="70" y="140" width="60" height="60" rx="6" fill="#f67c5f"/>
    <text x="100" y="182" font-family="Arial,sans-serif" font-size="24" font-weight="bold" text-anchor="middle" fill="#f9f6f2">32</text>
    <rect x="140" y="140" width="60" height="60" rx="6" fill="#f65e3b"/>
    <text x="170" y="182" font-family="Arial,sans-serif" font-size="26" font-weight="bold" text-anchor="middle" fill="#f9f6f2">64</text>
  </g>
  <!-- Title -->
  <text x="200" y="275" font-family="Arial,sans-serif" font-size="32" font-weight="bold" text-anchor="middle" fill="#776e65">2048</text>
</svg>
