<svg xmlns="http://www.w3.org/2000/svg" viewBox="0 0 400 225"><defs><linearGradient id="t2048" x1="0%" y1="0%" x2="100%" y2="100%"><stop offset="0%" stop-color="#bbada0"/><stop offset="100%" stop-color="#cdc1b4"/></linearGradient></defs><rect width="400" height="225" fill="#faf8ef" rx="12"/><rect x="20" y="20" width="165" height="185" fill="#bbada0" rx="8"/><g transform="translate(25,25)"><rect width="35" height="35" x="0" y="0" rx="4" fill="#eee4da"/><text x="17.5" y="25" text-anchor="middle" font-family="Arial Black" font-size="16" fill="#776e65">2</text><rect width="35" height="35" x="40" y="0" rx="4" fill="#ede0c8"/><text x="57.5" y="25" text-anchor="middle" font-family="Arial Black" font-size="16" fill="#776e65">4</text><rect width="35" height="35" x="80" y="0" rx="4" fill="#eee4da"/><rect width="35" height="35" x="120" y="0" rx="4" fill="#f2b179"/><text x="137.5" y="25" text-anchor="middle" font-family="Arial Black" font-size="16" fill="#f9f6f2">8</text><rect width="35" height="35" x="0" y="40" rx="4" fill="#eee4da"/><rect width="35" height="35" x="40" y="40" rx="4" fill="#f59563"/><text x="57.5" y="65" text-anchor="middle" font-family="Arial Black" font-size="16" fill="#f9f6f2">16</text><rect width="35" height="35" x="80" y="40" rx="4" fill="#eee4da"/><rect width="35" height="35" x="120" y="40" rx="4" fill="#ede0c8"/><rect width="35" height="35" x="0" y="80" rx="4" fill="#f2b179"/><text x="17.5" y="105" text-anchor="middle" font-family="Arial Black" font-size="16" fill="#f9f6f2">8</text><rect width="35" height="35" x="40" y="80" rx="4" fill="#ede0c8"/><rect width="35" height="35" x="80" y="80" rx="4" fill="#f59563"/><text x="97.5" y="105" text-anchor="middle" font-family="Arial Black" font-size="16" fill="#f9f6f2">16</text><rect width="35" height="35" x="120" y="80" rx="4" fill="#f67c5f"/><text x="137.5" y="105" text-anchor="middle" font-family="Arial Black" font-size="14" fill="#f9f6f2">32</text></g><text x="270" y="80" text-anchor="middle" font-family="Arial Black,sans-serif" font-size="48" fill="#776e65">2048</text><text x="270" y="115" text-anchor="middle" font-family="Arial,sans-serif" font-size="13" fill="#776e65" opacity="0.6">Number Puzzle</text><rect x="215" y="135" width="110" height="50" rx="10" fill="#8f7a66" opacity="0.3"/><text x="270" y="166" text-anchor="middle" font-family="sans-serif" font-size="11" fill="#776e65" opacity="0.5">Score: 16,384</text></svg>