<svg xmlns="http://www.w3.org/2000/svg" viewBox="0 0 400 300">
  <defs>
    <linearGradient id="bg" x1="0%" y1="0%" x2="0%" y2="100%">
      <stop offset="0%" style="stop-color:#000000"/>
      <stop offset="100%" style="stop-color:#1a1a2e"/>
    </linearGradient>
  </defs>
  <rect width="400" height="300" fill="url(#bg)"/>
  <circle cx="200" cy="260" r="3" fill="#22c55e" opacity="0.9"/>
  <rect x="197" y="245" width="6" height="15" fill="#22c55e" opacity="0.9"/>
  <rect x="40" y="60" width="20" height="15" fill="#22c55e" opacity="0.8"/>
  <rect x="90" y="60" width="20" height="15" fill="#22c55e" opacity="0.8"/>
  <rect x="140" y="60" width="20" height="15" fill="#22c55e" opacity="0.8"/>
  <rect x="240" y="60" width="20" height="15" fill="#22c55e" opacity="0.8"/>
  <rect x="290" y="60" width="20" height="15" fill="#22c55e" opacity="0.8"/>
  <rect x="340" y="60" width="20" height="15" fill="#22c55e" opacity="0.8"/>
  <rect x="40" y="90" width="20" height="15" fill="#22c55e" opacity="0.6"/>
  <rect x="140" y="90" width="20" height="15" fill="#22c55e" opacity="0.6"/>
  <rect x="240" y="90" width="20" height="15" fill="#22c55e" opacity="0.6"/>
  <rect x="340" y="90" width="20" height="15" fill="#22c55e" opacity="0.6"/>
  <rect x="90" y="120" width="20" height="15" fill="#22c55e" opacity="0.4"/>
  <rect x="290" y="120" width="20" height="15" fill="#22c55e" opacity="0.4"/>
  <rect x="60" y="150" width="280" height="4" fill="#6b7280" opacity="0.3"/>
  <rect x="185" y="40" width="30" height="8" fill="#ef4444" opacity="0.9"/>
  <rect x="195" y="30" width="10" height="10" fill="#ef4444" opacity="0.9"/>
  <rect x="190" y="48" width="20" height="3" fill="#fbbf24" opacity="0.8"/>
  <circle cx="200" cy="180" r="1.5" fill="#fbbf24" opacity="0.6"/>
  <circle cx="200" cy="200" r="1" fill="#fbbf24" opacity="0.4"/>
  <text x="200" y="280" font-family="Arial,sans-serif" font-size="28" font-weight="bold" fill="#22c55e" text-anchor="middle">SPACE INVADERS</text>
</svg>
