<svg xmlns="http://www.w3.org/2000/svg" viewBox="0 0 800 450"><defs><linearGradient id="craftBg" x1="0%" y1="0%" x2="100%" y2="100%"><stop offset="0%" stop-color="#1a1a2e"/><stop offset="50%" stop-color="#16213e"/><stop offset="100%" stop-color="#1a1a2e"/></linearGradient><radialGradient id="elementGlow"><stop offset="0%" stop-color="rgba(255,255,255,0.15)"/><stop offset="100%" stop-color="transparent"/></radialGradient></defs><rect width="800" height="450" fill="url(#craftBg)"/><!-- Element bubbles --><g transform="translate(150,120)"><rect x="0" y="0" width="80" height="36" rx="18" fill="#3b82f6" opacity="0.8"/><text x="40" y="24" text-anchor="middle" font-family="sans-serif" font-size="14" font-weight="bold" fill="white">Water</text></g><g transform="translate(280,160)"><rect x="0" y="0" width="72" height="34" rx="17" fill="#ef4444" opacity="0.8"/><text x="36" y="23" text-anchor="middle" font-family="sans-serif" font-size="14" font-weight="bold" fill="white">Fire</text></g><g transform="translate(420,130)"><rect x="0" y="0" width="68" height="32" rx="16" fill="#a78bfa" opacity="0.8"/><text x="34" y="21" text-anchor="middle" font-family="sans-serif" font-size="13" font-weight="bold" fill="white">Wind</text></g><g transform="translate(350,220)"><rect x="0" y="0" width="76" height="34" rx="17" fill="#22c55e" opacity="0.8"/><text x="38" y="23" text-anchor="middle" font-family="sans-serif" font-size="14" font-weight="bold" fill="white">Earth</text></g><!-- Combined elements (discovery glow) --><g transform="translate(250,290)"><circle cx="46" cy="20" r="50" fill="url(#elementGlow)"/><rect x="0" y="0" width="92" height="40" rx="20" fill="linear-gradient(135deg,#f59e0b,#f97316)" opacity="0.95"/><text x="46" y="26" text-anchor="middle" font-family="sans-serif" font-size="13" font-weight="bold" fill="white">Steam 💨</text></g><g transform="translate(450,280)"><circle cx="40" cy="18" r="44" fill="url(#elementGlow)"/><rect x="0" y="0" width="80" height="36" rx="18" fill="#06b6d4" opacity="0.9"/><text x="40" y="24" text-anchor="middle" font-family="sans-serif" font-size="13" font-weight="bold" fill="white">Lava 🌋</text></g><g transform="translate(550,180)"><rect x="0" y="0" width="84" height="38" rx="19" fill="#ec4899" opacity="0.7"/><text x="42" y="25" text-anchor="middle" font-family="sans-serif" font-size="13" font-weight="bold" fill="white">Mud 🏜️</text></g><!-- Connection lines --><line x1="190" y1="140" x2="296" y2="175" stroke="white" stroke-width="0.5" stroke-dasharray="4 4" opacity="0.15"/><line x1="316" y1="178" x2="374" y2="218" stroke="white" stroke-width="0.5" stroke-dasharray="4 4" opacity="0.15"/><line x1="352" y1="178" x2="454" y2="148" stroke="white" stroke-width="0.5" stroke-dasharray="4 4" opacity="0.15"/><text x="400" y="410" text-anchor="middle" font-family="sans-serif" font-size="16" fill="white" opacity="0.15" letter-spacing="4">∞ INFINITE CRAFT</text></svg>