<svg xmlns="http://www.w3.org/2000/svg" viewBox="0 0 800 450"><defs><linearGradient id="sky" x1="0%" y1="0%" x2="0%" y2="100%"><stop offset="0%" stop-color="#87CEEB"/><stop offset="60%" stop-color="#98D8E8"/><stop offset="100%" stop-color="#B0E0E6"/></linearGradient><linearGradient id="pipeGrad" x1="0%" y1="0%" x2="100%" y2="0%"><stop offset="0%" stop-color="#228B22"/><stop offset="50%" stop-color="#32CD32"/><stop offset="100%" stop-color="#228B22"/></linearGradient></defs><rect width="800" height="450" fill="url(#sky)"/><!-- Clouds --><ellipse cx="150" cy="80" rx="60" ry="25" fill="white" opacity="0.7"/><ellipse cx="190" cy="75" rx="45" ry="20" fill="white" opacity="0.7"/><ellipse cx="600" cy="120" rx="70" ry="28" fill="white" opacity="0.5"/><ellipse cx="550" cy="115" rx="50" ry="22" fill="white" opacity="0.5"/><!-- Ground --><rect x="0" y="410" width="800" height="40" fill="#DEB887"/><rect x="0" y="410" width="800" height="5" fill="#8B4513"/><!-- Pipes --><rect x="280" y="0" width="52" height="270" rx="6" fill="url(#pipeGrad)"/><rect x="275" y="265" width="62" height="15" rx="3" fill="#1a6b1a"/><rect x="280" y="330" width="52" height="120" rx="6" fill="url(#pipeGrad)"/><rect x="275" y="325" width="62" height="15" rx="3" fill="#1a6b1a"/><rect x="520" y="0" width="52" height="220" rx="6" fill="url(#pipeGrad)"/><rect x="515" y="215" width="62" height="15" rx="3" fill="#1a6b1a"/><rect x="520" y="360" width="52" height="90" rx="6" fill="url(#pipeGrad)"/><rect x="515" y="355" width="62" height="15" rx="3" fill="#1a6b1a"/><!-- Bird (Flappy) --><g transform="translate(180, 290)"><ellipse cx="20" cy="15" rx="20" ry="15" fill="#FFD700"/><ellipse cx="20" cy="15" rx="16" ry="12" fill="#FFA500"/><circle cx="28" cy="11" r="5" fill="white"/><circle cx="29" cy="11" r="2.5" fill="#000"/><polygon points="38,13 48,15 38,17" fill="#FF6B35"/><ellipse cx="12" cy="8" rx="10" ry="6" fill="#FFD700" opacity="0.8"/><ellipse cx="12" cy="22" rx="10" ry="6" fill="#FFD700" opacity="0.8"/></g><text x="400" y="438" text-anchor="middle" font-family="Arial Black,sans-serif" font-size="12" fill="#228B22" opacity="0.3" letter-spacing="4">FLAPPY WINGS</text></svg>