<svg xmlns="http://www.w3.org/2000/svg" viewBox="0 0 400 300">
  <defs>
    <linearGradient id="bg" x1="0%" y1="0%" x2="100%" y2="100%">
      <stop offset="0%" style="stop-color:#0f172a"/>
      <stop offset="100%" style="stop-color:#6366f1"/>
    </linearGradient>
    <linearGradient id="track" x1="0%" y1="0%" x2="100%" y2="0%">
      <stop offset="0%" style="stop-color:#06b6d4"/>
      <stop offset="50%" style="stop-color:#8b5cf6"/>
      <stop offset="100%" style="stop-color:#ec4899"/>
    </linearGradient>
  </defs>
  <rect width="400" height="300" fill="url(#bg)"/>
  <rect x="0" y="140" width="400" height="3" fill="url(#track)" rx="2"/>
  <rect x="0" y="160" width="400" height="3" fill="url(#track)" rx="2"/>
  <line x1="0" y1="145" x2="400" y2="145" stroke="#06b6d4" stroke-width="1" opacity="0.5"/>
  <line x1="0" y1="165" x2="400" y2="165" stroke="#ec4899" stroke-width="1" opacity="0.5"/>
  <polygon points="200,120 220,150 250,155 225,175 235,210 200,190 165,210 175,175 150,155 180,150" fill="#8b5cf6" opacity="0.9"/>
  <polygon points="200,120 215,142 240,146 220,165 228,190 200,175 172,190 180,165 160,146 185,142" fill="#a78bfa" opacity="0.7"/>
  <circle cx="100" cy="80" r="2" fill="#06b6d4" opacity="0.8"/>
  <circle cx="300" cy="60" r="1.5" fill="#8b5cf6" opacity="0.8"/>
  <circle cx="350" cy="100" r="1" fill="#ec4899" opacity="0.8"/>
  <circle cx="50" cy="100" r="1.5" fill="#06b6d4" opacity="0.6"/>
  <circle cx="150" cy="50" r="1" fill="#8b5cf6" opacity="0.6"/>
  <text x="200" y="250" font-family="Arial,sans-serif" font-size="32" font-weight="bold" fill="#e2e8f0" text-anchor="middle">HexGL</text>
  <text x="200" y="275" font-family="Arial,sans-serif" font-size="14" fill="#8b5cf6" text-anchor="middle">FUTURISTIC RACING</text>
</svg>
