<svg xmlns="http://www.w3.org/2000/svg" viewBox="0 0 1920 1080">
<defs>
    <linearGradient id="sky3" x1="0" y1="0" x2="0" y2="1">
      <stop offset="0%" stop-color="#0D47A1"/>
      <stop offset="50%" stop-color="#42A5F5"/>
      <stop offset="100%" stop-color="#E1F5FE"/>
    </linearGradient>
  </defs>
<rect width="1920" height="1080" fill="url(#sky3)"/>
<circle cx="1600" cy="200" r="80" fill="#FFD600" opacity="0.9"/>
<circle cx="1600" cy="200" r="200" fill="#FFD600" opacity="0.15"/>
<ellipse cx="400" cy="180" rx="180" ry="60" fill="white" opacity="0.8"/>
<ellipse cx="520" cy="160" rx="130" ry="50" fill="white" opacity="0.85"/>
<ellipse cx="900" cy="140" rx="150" ry="55" fill="white" opacity="0.75"/>
<ellipse cx="1500" cy="220" rx="160" ry="55" fill="white" opacity="0.7"/>
<polygon points="0,700 200,450 400,700" fill="#37474F" opacity="0.3"/>
<polygon points="300,700 500,400 700,700" fill="#455A64" opacity="0.25"/>
<polygon points="600,700 800,480 1000,700" fill="#37474F" opacity="0.2"/>
<polygon points="900,700 1100,420 1300,700" fill="#455A64" opacity="0.25"/>
<polygon points="1200,700 1400,500 1600,700" fill="#37474F" opacity="0.2"/>
<rect y="700" width="1920" height="380" fill="#4CAF50"/>
<rect y="700" width="1920" height="380" fill="#388E3C" opacity="0.3"/>
<line x1="0" y1="700" x2="0" y2="1080" stroke="#2E7D32" stroke-width="0.5" opacity="0.2"/>
<line x1="64" y1="700" x2="64" y2="1080" stroke="#2E7D32" stroke-width="0.5" opacity="0.2"/>
<line x1="128" y1="700" x2="128" y2="1080" stroke="#2E7D32" stroke-width="0.5" opacity="0.2"/>
<line x1="192" y1="700" x2="192" y2="1080" stroke="#2E7D32" stroke-width="0.5" opacity="0.2"/>
<line x1="256" y1="700" x2="256" y2="1080" stroke="#2E7D32" stroke-width="0.5" opacity="0.2"/>
<line x1="320" y1="700" x2="320" y2="1080" stroke="#2E7D32" stroke-width="0.5" opacity="0.2"/>
<line x1="384" y1="700" x2="384" y2="1080" stroke="#2E7D32" stroke-width="0.5" opacity="0.2"/>
<line x1="448" y1="700" x2="448" y2="1080" stroke="#2E7D32" stroke-width="0.5" opacity="0.2"/>
<line x1="512" y1="700" x2="512" y2="1080" stroke="#2E7D32" stroke-width="0.5" opacity="0.2"/>
<line x1="576" y1="700" x2="576" y2="1080" stroke="#2E7D32" stroke-width="0.5" opacity="0.2"/>
<line x1="640" y1="700" x2="640" y2="1080" stroke="#2E7D32" stroke-width="0.5" opacity="0.2"/>
<line x1="704" y1="700" x2="704" y2="1080" stroke="#2E7D32" stroke-width="0.5" opacity="0.2"/>
<line x1="768" y1="700" x2="768" y2="1080" stroke="#2E7D32" stroke-width="0.5" opacity="0.2"/>
<line x1="832" y1="700" x2="832" y2="1080" stroke="#2E7D32" stroke-width="0.5" opacity="0.2"/>
<line x1="896" y1="700" x2="896" y2="1080" stroke="#2E7D32" stroke-width="0.5" opacity="0.2"/>
<line x1="960" y1="700" x2="960" y2="1080" stroke="#2E7D32" stroke-width="0.5" opacity="0.2"/>
<line x1="1024" y1="700" x2="1024" y2="1080" stroke="#2E7D32" stroke-width="0.5" opacity="0.2"/>
<line x1="1088" y1="700" x2="1088" y2="1080" stroke="#2E7D32" stroke-width="0.5" opacity="0.2"/>
<line x1="1152" y1="700" x2="1152" y2="1080" stroke="#2E7D32" stroke-width="0.5" opacity="0.2"/>
<line x1="1216" y1="700" x2="1216" y2="1080" stroke="#2E7D32" stroke-width="0.5" opacity="0.2"/>
<line x1="1280" y1="700" x2="1280" y2="1080" stroke="#2E7D32" stroke-width="0.5" opacity="0.2"/>
<line x1="1344" y1="700" x2="1344" y2="1080" stroke="#2E7D32" stroke-width="0.5" opacity="0.2"/>
<line x1="1408" y1="700" x2="1408" y2="1080" stroke="#2E7D32" stroke-width="0.5" opacity="0.2"/>
<line x1="1472" y1="700" x2="1472" y2="1080" stroke="#2E7D32" stroke-width="0.5" opacity="0.2"/>
<line x1="1536" y1="700" x2="1536" y2="1080" stroke="#2E7D32" stroke-width="0.5" opacity="0.2"/>
<line x1="1600" y1="700" x2="1600" y2="1080" stroke="#2E7D32" stroke-width="0.5" opacity="0.2"/>
<line x1="1664" y1="700" x2="1664" y2="1080" stroke="#2E7D32" stroke-width="0.5" opacity="0.2"/>
<line x1="1728" y1="700" x2="1728" y2="1080" stroke="#2E7D32" stroke-width="0.5" opacity="0.2"/>
<line x1="1792" y1="700" x2="1792" y2="1080" stroke="#2E7D32" stroke-width="0.5" opacity="0.2"/>
<line x1="1856" y1="700" x2="1856" y2="1080" stroke="#2E7D32" stroke-width="0.5" opacity="0.2"/>
<line x1="1920" y1="700" x2="1920" y2="1080" stroke="#2E7D32" stroke-width="0.5" opacity="0.2"/>
<line x1="0" y1="700" x2="1920" y2="700" stroke="#2E7D32" stroke-width="0.5" opacity="0.2"/>
<line x1="0" y1="764" x2="1920" y2="764" stroke="#2E7D32" stroke-width="0.5" opacity="0.2"/>
<line x1="0" y1="828" x2="1920" y2="828" stroke="#2E7D32" stroke-width="0.5" opacity="0.2"/>
<line x1="0" y1="892" x2="1920" y2="892" stroke="#2E7D32" stroke-width="0.5" opacity="0.2"/>
<line x1="0" y1="956" x2="1920" y2="956" stroke="#2E7D32" stroke-width="0.5" opacity="0.2"/>
<line x1="0" y1="1020" x2="1920" y2="1020" stroke="#2E7D32" stroke-width="0.5" opacity="0.2"/>
<rect x="860" y="620" width="200" height="80" fill="#90A4AE" stroke="#607D8B" stroke-width="2"/>
<polygon points="860,620 960,560 1060,620" fill="#78909C" stroke="#546E7A" stroke-width="2"/>
<rect x="860" y="615" width="12" height="15" fill="#90A4AE" stroke="#607D8B" stroke-width="0.5"/>
<rect x="880" y="615" width="12" height="15" fill="#90A4AE" stroke="#607D8B" stroke-width="0.5"/>
<rect x="900" y="615" width="12" height="15" fill="#90A4AE" stroke="#607D8B" stroke-width="0.5"/>
<rect x="920" y="615" width="12" height="15" fill="#90A4AE" stroke="#607D8B" stroke-width="0.5"/>
<rect x="940" y="615" width="12" height="15" fill="#90A4AE" stroke="#607D8B" stroke-width="0.5"/>
<rect x="960" y="615" width="12" height="15" fill="#90A4AE" stroke="#607D8B" stroke-width="0.5"/>
<rect x="980" y="615" width="12" height="15" fill="#90A4AE" stroke="#607D8B" stroke-width="0.5"/>
<rect x="880" y="615" width="12" height="15" fill="#90A4AE" stroke="#607D8B" stroke-width="0.5"/>
<rect x="900" y="615" width="12" height="15" fill="#90A4AE" stroke="#607D8B" stroke-width="0.5"/>
<rect x="920" y="615" width="12" height="15" fill="#90A4AE" stroke="#607D8B" stroke-width="0.5"/>
<rect x="940" y="615" width="12" height="15" fill="#90A4AE" stroke="#607D8B" stroke-width="0.5"/>
<rect x="960" y="615" width="12" height="15" fill="#90A4AE" stroke="#607D8B" stroke-width="0.5"/>
<rect x="980" y="615" width="12" height="15" fill="#90A4AE" stroke="#607D8B" stroke-width="0.5"/>
<rect x="940" y="660" width="40" height="40" fill="#3E2723" stroke="#212121" stroke-width="1"/>
<rect x="900" y="640" width="20" height="25" fill="#FFF9C4" stroke="#F57F17" stroke-width="1"/>
<rect x="1040" y="640" width="20" height="25" fill="#FFF9C4" stroke="#F57F17" stroke-width="1"/>
<rect x="650" y="670" width="100" height="60" fill="#EF5350" stroke="#C62828" stroke-width="1.5"/>
<polygon points="640,670 700,635 760,670" fill="#5D4037" stroke="#3E2723"/>
<rect x="685" y="700" width="25" height="30" fill="#5D4037"/>
<rect x="650" y="685" width="18" height="18" fill="#FFF9C4" stroke="#F57F17"/>
<rect x="730" y="685" width="18" height="18" fill="#FFF9C4" stroke="#F57F17"/>
<rect x="790" y="680" width="16" height="50" fill="#6D4C41"/>
<rect x="775" y="650" width="46" height="45" fill="#2E7D32" rx="4"/>
<rect x="780" y="640" width="36" height="35" fill="#388E3C" rx="3"/>
<rect x="1200" y="675" width="90" height="55" fill="#42A5F5" stroke="#1565C0" stroke-width="1.5"/>
<polygon points="1190,675 1245,640 1300,675" fill="#5D4037" stroke="#3E2723"/>
<rect x="1230" y="700" width="22" height="30" fill="#5D4037"/>
<ellipse cx="500" cy="760" rx="120" ry="50" fill="#1565C0" opacity="0.6"/>
<ellipse cx="500" cy="760" rx="120" ry="50" fill="#1E88E5" opacity="0.3"/>
<path d="M700 740 Q800 720 900 700 Q960 690 1020 700 Q1100 720 1200 740" fill="none" stroke="#D2B48C" stroke-width="20" opacity="0.5"/>
<rect x="1400" y="500" width="40" height="40" fill="#FF9800" stroke="#F57C00" stroke-width="1.5" opacity="0.7"/>
<rect x="1450" y="480" width="40" height="40" fill="#4CAF50" stroke="#388E3C" stroke-width="1.5" opacity="0.7"/>
<rect x="1500" y="520" width="40" height="40" fill="#2196F3" stroke="#1565C0" stroke-width="1.5" opacity="0.7"/>
<text x="960" y="950" text-anchor="middle" font-family="monospace" font-size="64" font-weight="bold" fill="#76FF03" opacity="0.1">Tiny World Builder</text>
</svg>