<svg xmlns="http://www.w3.org/2000/svg" viewBox="0 0 400 225"><defs><linearGradient id="fwSky" x1="0" y1="0" x2="0" y2="1"><stop offset="0%" stop-color="#87CEEB"/><stop offset="100%" stop-color="#B0E0E6"/></linearGradient></defs><rect width="400" height="225" fill="url(#fwSky)" rx="12"/><ellipse cx="80" cy="40" rx="35" ry="15" fill="white" opacity="0.6"/><ellipse cx="110" cy="36" rx="25" ry="12" fill="white" opacity="0.6"/><rect x="0" y="195" width="400" height="30" fill="#DEB887" rx="0 0 12 12"/><rect x="0" y="195" width="400" height="4" fill="#8B4513" rx="0"/><rect x="130" y="0" width="28" height="145" rx="4" fill="#228B22"/><rect x="126" y="141" width="36" height="8" rx="2" fill="#1a6b1a"/><rect x="130" y="175" width="28" height="50" rx="4" fill="#228B22"/><rect x="126" y="171" width="36" height="8" rx="2" fill="#1a6b1a"/><rect x="250" y="0" width="28" height="120" rx="4" fill="#228B22"/><rect x="246" y="116" width="36" height="8" rx="2" fill="#1a6b1a"/><rect x="250" y="155" width="28" height="70" rx="4" fill="#228B22"/><g transform="translate(85,125)"><ellipse cx="14" y="10" rx="14" ry="11" fill="#FFD700"/><ellipse cx="14" y="10" rx="11" ry="8" fill="#FFA500"/><circle cx="20" y="7" r="3.5" fill="white"/><circle cx="21" y="7" r="1.8" fill="#000"/><polygon points="26,8 33,10 26,12" fill="#FF6B35"/><ellipse cx="8" y="5" rx="7" ry="4" fill="#FFD700" opacity="0.8"/><ellipse cx="8" y="15" rx="7" ry="4" fill="#FFD700" opacity="0.8"/></g><text x="320" y="60" text-anchor="middle" font-family="Impact,sans-serif" font-size="28" fill="#228B22">Flappy Wings</text><text x="320" y="82" text-anchor="middle" font-family="sans-serif" font-size="10" fill="#555">Tap to Fly!</text><rect x="260" y="95" width="100" height="55" rx="8" fill="white" opacity="0.85"/><text x="310" y="118" text-anchor="middle" font-family="sans-serif" font-size="10" fill="#333">BEST SCORE</text><text x="310" y="142" text-anchor="middle" font-family="Impact,sans-serif" font-size="22" fill="#228B24">42</text></svg>