<svg xmlns="http://www.w3.org/2000/svg" viewBox="0 0 800 450"><defs><linearGradient id="tg" x1="0%" y1="0%" x2="100%" y2="100%"><stop offset="0%" stop-color="#1a1a2e"/><stop offset="100%" stop-color="#16213e"/></linearGradient><filter id="neon1"><feGaussianBlur stdDeviation="2" result="blur"/><feMerge><feMergeNode in="blur"/><feMergeNode in="SourceGraphic"/></feMerge></filter></defs><rect width="800" height="450" fill="url(#tg)"/><line x1="0" y1="0" x2="800" y2="450" stroke="#00d4ff" stroke-width="0.5" opacity="0.1"/><line x1="800" y1="0" x2="0" y2="450" stroke="#ff00ff" stroke-width="0.5" opacity="0.08"/><g transform="translate(300,80)" opacity="0.7"><rect x="0" y="0" width="28" height="28" rx="3" fill="#00f0ff" filter="url(#neon1)"/><rect x="28" y="0" width="28" height="28" rx="3" fill="#00f0ff" filter="url(#neon1)"/><rect x="56" y="0" width="28" height="28" rx="3" fill="#00f0ff" filter="url(#neon1)"/><rect x="84" y="0" width="28" height="28" rx="3" fill="#00f0ff" filter="url(#neon1)"/><rect x="0" y="28" width="28" height="28" rx="3" fill="#00f0ff" filter="url(#neon1)"/></g><g transform="translate(480,180)" opacity="0.5"><rect x="0" y="0" width="28" height="28" rx="3" fill="#ff00ff" filter="url(#neon1)"/><rect x="0" y="28" width="28" height="28" rx="3" fill="#ff00ff" filter="url(#neon1)"/><rect x="28" y="28" width="28" height="28" rx="3" fill="#ff00ff" filter="url(#neon1)"/><rect x="56" y="28" width="28" height="28" rx="3" fill="#ff00ff" filter="url(#neon1)"/></g><g transform="translate(120,250)" opacity="0.4"><rect x="0" y="0" width="28" height="28" rx="3" fill="#ffff00" filter="url(#neon1)"/><rect x="28" y="0" width="28" height="28" rx="3" fill="#ffff00" filter="url(#neon1)"/><rect x="0" y="28" width="28" height="28" rx="3" fill="#ffff00" filter="url(#neon1)"/><rect x="28" y="28" width="28" height="28" rx="3" fill="#ffff00" filter="url(#neon1)"/></g><text x="400" y="420" text-anchor="middle" font-family="monospace" font-size="14" fill="#00d4ff" opacity="0.3" letter-spacing="8">TETRIS</text></svg>