<svg xmlns="http://www.w3.org/2000/svg" viewBox="0 0 400 300" width="400" height="300">
  <defs><radialGradient id="bg" cx="50%" cy="50%" r="60%"><stop offset="0%" stop-color="#1a1a3e"/><stop offset="100%" stop-color="#0a0a1a"/></radialGradient><radialGradient id="p" cx="40%" cy="35%" r="50%"><stop offset="0%" stop-color="#7ec8e3"/><stop offset="60%" stop-color="#4a9cc2"/><stop offset="100%" stop-color="#2a6a8a"/></radialGradient></defs>
  <rect width="400" height="300" fill="url(#bg)"/>
  <circle cx="40" cy="50" r="1.2" fill="white" opacity="0.8"/><circle cx="120" cy="30" r="0.8" fill="white" opacity="0.6"/><circle cx="200" cy="70" r="1.5" fill="white" opacity="0.9"/><circle cx="290" cy="40" r="1" fill="white" opacity="0.7"/><circle cx="350" cy="80" r="0.7" fill="white" opacity="0.5"/>
  <g transform="translate(200,150)"><circle cx="0" cy="0" r="70" fill="url(#p)"/><path d="M-50,-40 Q-30,-55 -10,-50 Q10,-48 30,-52 Q45,-40 50,-25 Q55,-10 52,10 Q48,30 40,45 Q25,55 5,58 Q-15,55 -35,50 Q-50,35 -55,15 Q-58,-5 -55,-25 Z" fill="rgba(120,200,230,0.15)" stroke="rgba(120,200,230,0.3)" stroke-width="1"/><circle cx="0" cy="0" r="75" fill="none" stroke="rgba(120,200,255,0.15)" stroke-width="3"/></g>
  <text x="200" y="260" text-anchor="middle" font-family="Arial,sans-serif" font-size="28" font-weight="bold" fill="white" letter-spacing="2">Messenger</text>
  <text x="200" y="282" text-anchor="middle" font-family="Arial,sans-serif" font-size="12" fill="rgba(255,255,255,0.6)" letter-spacing="1">3D Planet Exploration</text>
</svg>
