<svg xmlns="http://www.w3.org/2000/svg" viewBox="0 0 800 450"><defs><linearGradient id="sug" x1="0%" y1="0%" x2="100%" y2="100%"><stop offset="0%" stop-color="#fefefe"/><stop offset="100%" stop-color="#f0f0f0"/></linearGradient></defs><rect width="800" height="450" fill="url(#sug)"/><g transform="translate(275,50)"><!-- 9x9 Grid --><rect width="250" height="250" fill="none" stroke="#333" stroke-width="2"/><line x1="83.33" y1="0" x2="83.33" y2="250" stroke="#ccc" stroke-width="1"/><line x1="166.67" y1="0" x2="166.67" y2="250" stroke="#ccc" stroke-width="1"/><line x1="0" y1="83.33" x2="250" y2="83.33" stroke="#ccc" stroke-width="1"/><line x1="0" y1="166.67" x2="250" y2="166.67" stroke="#ccc" stroke-width="1"/><line x1="83.33" y1="0" x2="83.33" y2="250" stroke="#333" stroke-width="2"/><line x1="166.67" y1="0" x2="166.67" y2="250" stroke="#333" stroke-width="2"/><line x1="0" y1="83.33" x2="250" y2="83.33" stroke="#333" stroke-width="2"/><line x1="0" y1="166.67" x2="250" y2="166.67" stroke="#333" stroke-width="2"/><!-- Numbers --><text x="42" y="55" text-anchor="middle" font-family="Georgia,serif" font-size="24" font-weight="bold" fill="#222">5</text><text x="125" y="55" text-anchor="middle" font-family="Georgia,serif" font-size="24" font-weight="bold" fill="#1a73e8">3</text><text x="208" y="55" text-anchor="middle" font-family="Georgia,serif" font-size="24" font-weight="bold" fill="#222">7</text><text x="42" y="138" text-anchor="middle" font-family="Georgia,serif" font-size="24" font-weight="bold" fill="#222">6</text><text x="208" y="138" text-anchor="middle" font-family="Georgia,serif" font-size="24" font-weight="bold" fill="#222">1</text><text x="125" y="222" text-anchor="middle" font-family="Georgia,serif" font-size="24" font-weight="bold" fill="#1a73e8">9</text><text x="208" y="222" text-anchor="middle" font-family="Georgia,serif" font-size="24" font-weight="bold" fill="#222">4</text></g><text x="400" y="340" text-anchor="middle" font-family="Georgia,serif" font-size="28" fill="#1a73e8" opacity="0.4" font-style="italic">SUDOKU</text><text x="400" y="370" text-anchor="middle" font-family="sans-serif" font-size="13" fill="#666" opacity="0.35">Logic · Numbers · Brain Training</text></svg>