<svg xmlns="http://www.w3.org/2000/svg" viewBox="0 0 400 225"><rect width="400" height="225" fill="#0d0d1a" rx="12"/><rect x="20" y="15" width="150" height="195" fill="#111122" stroke="#333" stroke-width="1" rx="4"/><g transform="translate(25,20)"><rect x="0" y="0" width="14" height="14" rx="2" fill="#00f0ff"/><rect x="14" y="0" width="14" height="14" rx="2" fill="#00f0ff"/><rect x="28" y="0" width="14" height="14" rx="2" fill="#00f0ff"/><rect x="42" y="0" width="14" height="14" rx="2" fill="#00f0ff"/><rect x="0" y="14" width="14" height="14" rx="2" fill="#00f0ff"/><rect x="70" y="28" width="14" height="14" rx="2" fill="#ff00ff" opacity="0.6"/><rect x="70" y="42" width="14" height="14" rx="2" fill="#ff00ff" opacity="0.6"/><rect x="70" y="56" width="14" height="14" rx="2" fill="#ff00ff" opacity="0.6"/><rect x="84" y="56" width="14" height="14" rx="2" fill="#ff00ff" opacity="0.6"/><rect x="0" y="140" width="14" height="14" rx="2" fill="#ffff00" opacity="0.5"/><rect x="14" y="140" width="14" height="14" rx="2" fill="#ffff00" opacity="0.5"/><rect x="28" y="140" width="14" height="14" rx="2" fill="#ffff00" opacity="0.5"/><rect x="14" y="154" width="14" height="14" rx="2" fill="#ffff00" opacity="0.5"/><rect x="98" y="168" width="14" height="14" rx="2" fill="#00ff00" opacity="0.4"/></g><text x="270" y="60" text-anchor="middle" font-family="Impact,sans-serif" font-size="42" fill="#00d4ff">TETRIS</text><text x="270" y="90" text-anchor="middle" font-family="sans-serif" font-size="13" fill="#888">Block Stacking Classic</text><rect x="205" y="110" width="130" height="80" rx="8" fill="#1a1a2e" stroke="#333" stroke-width="1"/><text x="270" y="135" text-anchor="middle" font-family="monospace" font-size="11" fill="#00d4ff">NEXT</text><g transform="translate(235,145)"><rect x="0" y="0" width="14" height="14" rx="2" fill="#00f0ff"/><rect x="14" y="0" width="14" height="14" rx="2" fill="#00f0ff"/><rect x="28" y="0" width="14" height="14" rx="2" fill="#00f0ff"/><rect x="0" y="14" width="14" height="14" rx="2" fill="#00f0ff"/></g><text x="270" y="205" text-anchor="middle" font-family="monospace" font-size="12" fill="#ff6b6b">LEVEL 5 · 24,500 pts</text></svg>