<svg xmlns="http://www.w3.org/2000/svg" viewBox="0 0 400 225"><rect width="400" height="225" fill="#fefefe" rx="12"/><g transform="translate(115,12)"><rect width="170" height="170" fill="none" stroke="#ccc" stroke-width="1"/><line x1="56.67" y1="0" x2="56.67" y2="170" stroke="#ddd" stroke-width="0.5"/><line x1="113.33" y1="0" x2="113.33" y2="170" stroke="#ddd" stroke-width="0.5"/><line x1="0" y1="56.67" x2="170" y2="56.67" stroke="#ddd" stroke-width="0.5"/><line x1="0" y1="113.33" x2="170" y2="113.33" stroke="#ddd" stroke-width="0.5"/><line x1="56.67" y1="0" x2="56.67" y2="170" stroke="#999" stroke-width="1.5"/><line x1="113.33" y1="0" x2="113.33" y2="170" stroke="#999" stroke-width="1.5"/><line x1="0" y1="56.67" x2="170" y2="56.67" stroke="#999" stroke-width="1.5"/><line x1="0" y1="113.33" x2="170" y2="113.33" stroke="#999" stroke-width="1.5"/><text x="28.5" y="38" text-anchor="middle" font-family="Georgia" font-size="16" font-weight="bold" fill="#333">5</text><text x="85" y="38" text-anchor="middle" font-family="Georgia" font-size="16" font-weight="bold" fill="#1a73e8">3</text><text x="141.5" y="38" text-anchor="middle" font-family="Georgia" font-size="16" font-weight="bold" fill="#333">7</text><text x="28.5" y="94" text-anchor="middle" font-family="Georgia" font-size="16" font-weight="bold" fill="#333">6</text><text x="141.5" y="94" text-anchor="middle" font-family="Georgia" font-size="16" font-weight="bold" fill="#333">1</text><text x="85" y="151" text-anchor="middle" font-family="Georgia" font-size="16" font-weight="bold" fill="#1a73e8">9</text><text x="141.5" y="151" text-anchor="middle" font-family="Georgia" font-size="16" font-weight="bold" fill="#333">4</text></g><text x="310" y="70" text-anchor="middle" font-family="Georgia,serif" font-size="28" font-weight="bold" fill="#1a73e8">Sudoku</text><text x="310" y="98" text-anchor="middle" font-family="sans-serif" font-size="11" fill="#666">Logic Puzzle</text><text x="310" y="140" text-anchor="middle" font-family="monospace" font-size="11" fill="#1a73e8" opacity="0.6">Medium · 24/81</text><rect x="250" y="155" width="120" height="50" rx="8" fill="#e8f0fe" opacity="0.6"/><text x="310" y="184" text-anchor="middle" font-family="sans-serif" font-size="11" fill="#1a73e8" font-weight="bold">⏱ 08:32 elapsed</text></svg>