<svg xmlns="http://www.w3.org/2000/svg" viewBox="0 0 400 225"><defs><linearGradient id="msCell" x1="0" y1="0" x2="1" y2="1"><stop offset="0%" stop-color="#e8e8e8"/><stop offset="100%" stop-color="#d0d0d0"/></linearGradient></defs><rect width="400" height="225" fill="#c0c0c0" rx="12"/><g transform="translate(100,20)"><rect width="200" height="185" fill="#bbb" rx="4"/><!-- Grid of cells --><g><rect x="0" y="0" width="19" height="19" fill="#e0e0e0"/>
<rect x="20" y="0" width="19" height="19" fill="#e0e0e0"/>
<text x="30.0" y="14.0" text-anchor="middle" font-family="Arial Bold" font-size="11" font-weight="bold" fill="#0000ff">1</text>
<rect x="40" y="0" width="19" height="19" fill="url(#msCell)" stroke="#aaa" stroke-width="0.5"/>
<rect x="60" y="0" width="19" height="19" fill="#e0e0e0"/>
<text x="70.0" y="14.0" text-anchor="middle" font-family="Arial Bold" font-size="11" font-weight="bold" fill="#0000ff">1</text>
<rect x="80" y="0" width="19" height="19" fill="#e0e0e0"/>
<text x="90.0" y="14.0" text-anchor="middle" font-family="Arial Bold" font-size="11" font-weight="bold" fill="#0000ff">1</text>
<rect x="100" y="0" width="19" height="19" fill="url(#msCell)" stroke="#aaa" stroke-width="0.5"/>
<text x="110.0" y="14.0" text-anchor="middle" font-size="11">🚩</text>
<rect x="120" y="0" width="19" height="19" fill="url(#msCell)" stroke="#aaa" stroke-width="0.5"/>
<text x="130.0" y="14.0" text-anchor="middle" font-size="11">🚩</text>
<rect x="140" y="0" width="19" height="19" fill="#e0e0e0"/>
<text x="150.0" y="14.0" text-anchor="middle" font-family="Arial Bold" font-size="11" font-weight="bold" fill="#008000">2</text>
<rect x="160" y="0" width="19" height="19" fill="#e0e0e0"/>
<text x="170.0" y="14.0" text-anchor="middle" font-family="Arial Bold" font-size="11" font-weight="bold" fill="#0000ff">1</text>
<rect x="180" y="0" width="19" height="19" fill="#e0e0e0"/>
<rect x="0" y="20" width="19" height="19" fill="url(#msCell)" stroke="#aaa" stroke-width="0.5"/>
<text x="10.0" y="34.0" text-anchor="middle" font-size="11">🚩</text>
<rect x="20" y="20" width="19" height="19" fill="#e0e0e0"/>
<rect x="40" y="20" width="19" height="19" fill="#e0e0e0"/>
<rect x="60" y="20" width="19" height="19" fill="#e0e0e0"/>
<text x="70.0" y="34.0" text-anchor="middle" font-family="Arial Bold" font-size="11" font-weight="bold" fill="#008000">2</text>
<rect x="80" y="20" width="19" height="19" fill="url(#msCell)" stroke="#aaa" stroke-width="0.5"/>
<rect x="100" y="20" width="19" height="19" fill="#e0e0e0"/>
<text x="110.0" y="34.0" text-anchor="middle" font-family="Arial Bold" font-size="11" font-weight="bold" fill="#0000ff">1</text>
<rect x="120" y="20" width="19" height="19" fill="#e0e0e0"/>
<text x="130.0" y="34.0" text-anchor="middle" font-family="Arial Bold" font-size="11" font-weight="bold" fill="#008000">2</text>
<rect x="140" y="20" width="19" height="19" fill="url(#msCell)" stroke="#aaa" stroke-width="0.5"/>
<text x="150.0" y="34.0" text-anchor="middle" font-size="11">🚩</text>
<rect x="160" y="20" width="19" height="19" fill="#e0e0e0"/>
<text x="170.0" y="34.0" text-anchor="middle" font-family="Arial Bold" font-size="11" font-weight="bold" fill="#0000ff">1</text>
<rect x="180" y="20" width="19" height="19" fill="#ffcccc"/>
<text x="190.0" y="34.0" text-anchor="middle" font-size="11">💣</text>
<rect x="0" y="40" width="19" height="19" fill="#ffcccc"/>
<text x="10.0" y="54.0" text-anchor="middle" font-size="11">💣</text>
<rect x="20" y="40" width="19" height="19" fill="#e0e0e0"/>
<text x="30.0" y="54.0" text-anchor="middle" font-family="Arial Bold" font-size="11" font-weight="bold" fill="#0000ff">1</text>
<rect x="40" y="40" width="19" height="19" fill="#e0e0e0"/>
<text x="50.0" y="54.0" text-anchor="middle" font-family="Arial Bold" font-size="11" font-weight="bold" fill="#0000ff">1</text>
<rect x="60" y="40" width="19" height="19" fill="#e0e0e0"/>
<text x="70.0" y="54.0" text-anchor="middle" font-family="Arial Bold" font-size="11" font-weight="bold" fill="#008000">2</text>
<rect x="80" y="40" width="19" height="19" fill="#ffcccc"/>
<text x="90.0" y="54.0" text-anchor="middle" font-size="11">💣</text>
<rect x="100" y="40" width="19" height="19" fill="#e0e0e0"/>
<rect x="120" y="40" width="19" height="19" fill="#ffcccc"/>
<text x="130.0" y="54.0" text-anchor="middle" font-size="11">💣</text>
<rect x="140" y="40" width="19" height="19" fill="#ffcccc"/>
<text x="150.0" y="54.0" text-anchor="middle" font-size="11">💣</text>
<rect x="160" y="40" width="19" height="19" fill="url(#msCell)" stroke="#aaa" stroke-width="0.5"/>
<rect x="180" y="40" width="19" height="19" fill="url(#msCell)" stroke="#aaa" stroke-width="0.5"/>
<text x="190.0" y="54.0" text-anchor="middle" font-size="11">🚩</text>
<rect x="0" y="60" width="19" height="19" fill="url(#msCell)" stroke="#aaa" stroke-width="0.5"/>
<text x="10.0" y="74.0" text-anchor="middle" font-size="11">🚩</text>
<rect x="20" y="60" width="19" height="19" fill="url(#msCell)" stroke="#aaa" stroke-width="0.5"/>
<rect x="40" y="60" width="19" height="19" fill="url(#msCell)" stroke="#aaa" stroke-width="0.5"/>
<rect x="60" y="60" width="19" height="19" fill="url(#msCell)" stroke="#aaa" stroke-width="0.5"/>
<text x="70.0" y="74.0" text-anchor="middle" font-size="11">🚩</text>
<rect x="80" y="60" width="19" height="19" fill="url(#msCell)" stroke="#aaa" stroke-width="0.5"/>
<text x="90.0" y="74.0" text-anchor="middle" font-size="11">🚩</text>
<rect x="100" y="60" width="19" height="19" fill="url(#msCell)" stroke="#aaa" stroke-width="0.5"/>
<text x="110.0" y="74.0" text-anchor="middle" font-size="11">🚩</text>
<rect x="120" y="60" width="19" height="19" fill="#e0e0e0"/>
<text x="130.0" y="74.0" text-anchor="middle" font-family="Arial Bold" font-size="11" font-weight="bold" fill="#008000">2</text>
<rect x="140" y="60" width="19" height="19" fill="#ffcccc"/>
<text x="150.0" y="74.0" text-anchor="middle" font-size="11">💣</text>
<rect x="160" y="60" width="19" height="19" fill="#ffcccc"/>
<text x="170.0" y="74.0" text-anchor="middle" font-size="11">💣</text>
<rect x="180" y="60" width="19" height="19" fill="#e0e0e0"/>
<text x="190.0" y="74.0" text-anchor="middle" font-family="Arial Bold" font-size="11" font-weight="bold" fill="#0000ff">1</text>
<rect x="0" y="80" width="19" height="19" fill="#e0e0e0"/>
<rect x="20" y="80" width="19" height="19" fill="#e0e0e0"/>
<rect x="40" y="80" width="19" height="19" fill="#ffcccc"/>
<text x="50.0" y="94.0" text-anchor="middle" font-size="11">💣</text>
<rect x="60" y="80" width="19" height="19" fill="url(#msCell)" stroke="#aaa" stroke-width="0.5"/>
<rect x="80" y="80" width="19" height="19" fill="#e0e0e0"/>
<rect x="100" y="80" width="19" height="19" fill="#e0e0e0"/>
<text x="110.0" y="94.0" text-anchor="middle" font-family="Arial Bold" font-size="11" font-weight="bold" fill="#008000">2</text>
<rect x="120" y="80" width="19" height="19" fill="url(#msCell)" stroke="#aaa" stroke-width="0.5"/>
<rect x="140" y="80" width="19" height="19" fill="#e0e0e0"/>
<text x="150.0" y="94.0" text-anchor="middle" font-family="Arial Bold" font-size="11" font-weight="bold" fill="#008000">2</text>
<rect x="160" y="80" width="19" height="19" fill="url(#msCell)" stroke="#aaa" stroke-width="0.5"/>
<text x="170.0" y="94.0" text-anchor="middle" font-size="11">🚩</text>
<rect x="180" y="80" width="19" height="19" fill="url(#msCell)" stroke="#aaa" stroke-width="0.5"/>
<rect x="0" y="100" width="19" height="19" fill="#e0e0e0"/>
<rect x="20" y="100" width="19" height="19" fill="#e0e0e0"/>
<text x="30.0" y="114.0" text-anchor="middle" font-family="Arial Bold" font-size="11" font-weight="bold" fill="#0000ff">1</text>
<rect x="40" y="100" width="19" height="19" fill="#e0e0e0"/>
<text x="50.0" y="114.0" text-anchor="middle" font-family="Arial Bold" font-size="11" font-weight="bold" fill="#008000">2</text>
<rect x="60" y="100" width="19" height="19" fill="url(#msCell)" stroke="#aaa" stroke-width="0.5"/>
<text x="70.0" y="114.0" text-anchor="middle" font-size="11">🚩</text>
<rect x="80" y="100" width="19" height="19" fill="#e0e0e0"/>
<text x="90.0" y="114.0" text-anchor="middle" font-family="Arial Bold" font-size="11" font-weight="bold" fill="#0000ff">1</text>
<rect x="100" y="100" width="19" height="19" fill="url(#msCell)" stroke="#aaa" stroke-width="0.5"/>
<rect x="120" y="100" width="19" height="19" fill="url(#msCell)" stroke="#aaa" stroke-width="0.5"/>
<text x="130.0" y="114.0" text-anchor="middle" font-size="11">🚩</text>
<rect x="140" y="100" width="19" height="19" fill="url(#msCell)" stroke="#aaa" stroke-width="0.5"/>
<rect x="160" y="100" width="19" height="19" fill="url(#msCell)" stroke="#aaa" stroke-width="0.5"/>
<text x="170.0" y="114.0" text-anchor="middle" font-size="11">🚩</text>
<rect x="180" y="100" width="19" height="19" fill="#e0e0e0"/>
<text x="190.0" y="114.0" text-anchor="middle" font-family="Arial Bold" font-size="11" font-weight="bold" fill="#0000ff">1</text>
<rect x="0" y="120" width="19" height="19" fill="#e0e0e0"/>
<text x="10.0" y="134.0" text-anchor="middle" font-family="Arial Bold" font-size="11" font-weight="bold" fill="#008000">2</text>
<rect x="20" y="120" width="19" height="19" fill="#e0e0e0"/>
<rect x="40" y="120" width="19" height="19" fill="url(#msCell)" stroke="#aaa" stroke-width="0.5"/>
<text x="50.0" y="134.0" text-anchor="middle" font-size="11">🚩</text>
<rect x="60" y="120" width="19" height="19" fill="#e0e0e0"/>
<rect x="80" y="120" width="19" height="19" fill="#e0e0e0"/>
<rect x="100" y="120" width="19" height="19" fill="#e0e0e0"/>
<rect x="120" y="120" width="19" height="19" fill="url(#msCell)" stroke="#aaa" stroke-width="0.5"/>
<rect x="140" y="120" width="19" height="19" fill="url(#msCell)" stroke="#aaa" stroke-width="0.5"/>
<rect x="160" y="120" width="19" height="19" fill="#ffcccc"/>
<text x="170.0" y="134.0" text-anchor="middle" font-size="11">💣</text>
<rect x="180" y="120" width="19" height="19" fill="#ffcccc"/>
<text x="190.0" y="134.0" text-anchor="middle" font-size="11">💣</text>
<rect x="0" y="140" width="19" height="19" fill="url(#msCell)" stroke="#aaa" stroke-width="0.5"/>
<rect x="20" y="140" width="19" height="19" fill="#e0e0e0"/>
<text x="30.0" y="154.0" text-anchor="middle" font-family="Arial Bold" font-size="11" font-weight="bold" fill="#008000">2</text>
<rect x="40" y="140" width="19" height="19" fill="url(#msCell)" stroke="#aaa" stroke-width="0.5"/>
<rect x="60" y="140" width="19" height="19" fill="#e0e0e0"/>
<text x="70.0" y="154.0" text-anchor="middle" font-family="Arial Bold" font-size="11" font-weight="bold" fill="#008000">2</text>
<rect x="80" y="140" width="19" height="19" fill="url(#msCell)" stroke="#aaa" stroke-width="0.5"/>
<text x="90.0" y="154.0" text-anchor="middle" font-size="11">🚩</text>
<rect x="100" y="140" width="19" height="19" fill="#e0e0e0"/>
<rect x="120" y="140" width="19" height="19" fill="#e0e0e0"/>
<text x="130.0" y="154.0" text-anchor="middle" font-family="Arial Bold" font-size="11" font-weight="bold" fill="#008000">2</text>
<rect x="140" y="140" width="19" height="19" fill="#e0e0e0"/>
<text x="150.0" y="154.0" text-anchor="middle" font-family="Arial Bold" font-size="11" font-weight="bold" fill="#008000">2</text>
<rect x="160" y="140" width="19" height="19" fill="#e0e0e0"/>
<text x="170.0" y="154.0" text-anchor="middle" font-family="Arial Bold" font-size="11" font-weight="bold" fill="#0000ff">1</text>
<rect x="180" y="140" width="19" height="19" fill="#e0e0e0"/>
<text x="190.0" y="154.0" text-anchor="middle" font-family="Arial Bold" font-size="11" font-weight="bold" fill="#0000ff">1</text>
<rect x="0" y="160" width="19" height="19" fill="#e0e0e0"/>
<text x="10.0" y="174.0" text-anchor="middle" font-family="Arial Bold" font-size="11" font-weight="bold" fill="#008000">2</text>
<rect x="20" y="160" width="19" height="19" fill="url(#msCell)" stroke="#aaa" stroke-width="0.5"/>
<text x="30.0" y="174.0" text-anchor="middle" font-size="11">🚩</text>
<rect x="40" y="160" width="19" height="19" fill="#e0e0e0"/>
<text x="50.0" y="174.0" text-anchor="middle" font-family="Arial Bold" font-size="11" font-weight="bold" fill="#0000ff">1</text>
<rect x="60" y="160" width="19" height="19" fill="#e0e0e0"/>
<rect x="80" y="160" width="19" height="19" fill="#ffcccc"/>
<text x="90.0" y="174.0" text-anchor="middle" font-size="11">💣</text>
<rect x="100" y="160" width="19" height="19" fill="#e0e0e0"/>
<text x="110.0" y="174.0" text-anchor="middle" font-family="Arial Bold" font-size="11" font-weight="bold" fill="#0000ff">1</text>
<rect x="120" y="160" width="19" height="19" fill="url(#msCell)" stroke="#aaa" stroke-width="0.5"/>
<rect x="140" y="160" width="19" height="19" fill="#e0e0e0"/>
<text x="150.0" y="174.0" text-anchor="middle" font-family="Arial Bold" font-size="11" font-weight="bold" fill="#0000ff">1</text>
<rect x="160" y="160" width="19" height="19" fill="#e0e0e0"/>
<rect x="180" y="160" width="19" height="19" fill="url(#msCell)" stroke="#aaa" stroke-width="0.5"/></g></g><text x="320" y="55" text-anchor="middle" font-family="Impact,sans-serif" font-size="26" fill="#333">MINESWEEPER</text><text x="320" y="78" text-anchor="middle" font-family="sans-serif" font-size="10" fill="#666">Logic &amp; Luck</text><rect x="250" y="95" width="100" height="35" rx="6" fill="#e0e0e0" stroke="#aaa" stroke-width="1"/><text x="300" y="118" text-anchor="middle" font-family="digital,monospace" font-size="18" font-weight="bold" fill="#cc0000">💣 010</text><rect x="250" y="140" width="100" height="35" rx="6" fill="#e0e0e0" stroke="#aaa" stroke-width="1"/><text x="300" y="163" text-anchor="middle" font-family="digital,monospace" font-size="18" font-weight="bold" fill="#333">⏱ 001:23</text></svg>