<svg xmlns="http://www.w3.org/2000/svg" viewBox="0 0 400 225"><rect width="400" height="225" fill="#12122a" rx="12"/><g transform="translate(60,40)"><rect x="0" y="0" width="58" height="26" rx="13" fill="#3b82f6" opacity="0.85"/><text x="29" y="18" text-anchor="middle" font-family="sans-serif" font-size="11" font-weight="bold" fill="white">Water</text></g><g transform="translate(135,55)"><rect x="0" y="0" width="52" height="24" rx="12" fill="#ef4444" opacity="0.85"/><text x="26" y="17" text-anchor="middle" font-family="sans-serif" font-size="11" font-weight="bold" fill="white">Fire</text></g><g transform="translate(205,42)"><rect x="0" y="0" width="48" height="23" rx="11.5" fill="#a78bfa" opacity="0.85"/><text x="24" y="16" text-anchor="middle" font-family="sans-serif" font-size="10" font-weight="bold" fill="white">Wind</text></g><g transform="translate(170,100)"><rect x="0" y="0" width="54" height="24" rx="12" fill="#22c55e" opacity="0.85"/><text x="27" y="17" text-anchor="middle" font-family="sans-serif" font-size="11" font-weight="bold" fill="white">Earth</text></g><g transform="translate(115,130)"><rect x="0" y="0" width="66" height="28" rx="14" fill="#f59e0b" opacity="0.95"/><text x="33" y="19" text-anchor="middle" font-family="sans-serif" font-size="10" font-weight="bold" fill="white">Steam 💨</text></g><g transform="translate(210,125)"><rect x="0" y="0" width="58" height="26" rx="13" fill="#06b6d4" opacity="0.9"/><text x="29" y="18" text-anchor="middle" font-family="sans-serif" font-size="10" font-weight="bold" fill="white">Lava 🌋</text></g><g transform="translate(280,80)"><rect x="0" y="0" width="60" height="27" rx="13.5" fill="#ec4899" opacity="0.8"/><text x="30" y="18" text-anchor="middle" font-family="sans-serif" font-size="10" font-weight="bold" fill="white">Mud 🏜️</text></g><line x1="89" y1="53" x2="161" y2="67" stroke="white" stroke-width="0.4" stroke-dasharray="3 3" opacity="0.12"/><line x1="187" y1="67" x2="197" y2="103" stroke="white" stroke-width="0.4" stroke-dasharray="3 3" opacity="0.12"/><line x1="153" y1="79" x2="229" y2="53" stroke="white" stroke-width="0.4" stroke-dasharray="3 3" opacity="0.12"/><text x="330" y="60" text-anchor="middle" font-family="sans-serif" font-size="20" font-weight="bold" fill="white">Infinite Craft</text><text x="330" y="82" text-anchor="middle" font-family="sans-serif" font-size="9" fill="#888">Element Discovery</text><rect x="280" y="100" width="100" height="50" rx="8" fill="rgba(255,255,255,0.04)" stroke="white" stroke-opacity="0.06" stroke-width="1"/><text x="330" y="122" text-anchor="middle" font-family="sans-serif" font-size="9" fill="#aaa">Discovered</text><text x="330" y="142" text-anchor="middle" font-family="sans-serif" font-size="18" font-weight="bold" fill="#f59e0b">47 / ∞</text></svg>